<svg viewBox="0 0 83 76" xmlns="http://www.w3.org/2000/svg"><g fill="none" fill-rule="evenodd"><path d="M43.3 5.5a2 2 0 0 0-3.6 0L4.5 69a2 2 0 0 0-.2 1c0 1.1.9 2 2 2H77c.4 0 .7 0 1-.2a2 2 0 0 0 .8-2.8L43.3 5.5zm3.6-2l35.3 63.6a6 6 0 0 1-2.4 8.2c-.9.4-1.9.7-2.9.7H6.2a6 6 0 0 1-6-6c0-1 .2-2 .7-2.9L36.2 3.6a6.1 6.1 0 0 1 10.7 0z" fill="#CDD3D9" fill-rule="nonzero"/><path d="M44.1 32v11.4a33.9 33.9 0 0 1-.7 7.3h-3.7a54.3 54.3 0 0 1-.8-7.3V32h5.2zm-5.9 26a3.2 3.2 0 0 1 3.3-3.2 3.2 3.2 0 0 1 3 2l.2 1.2c0 .5 0 .9-.2 1.3a3.3 3.3 0 0 1-1.8 1.6l-1.2.3c-.5 0-1-.1-1.3-.3a3.2 3.2 0 0 1-2-2.9z" fill="#C7CDD3"/></g></svg>